<svg id="Слой_3" data-name="Слой 3" xmlns="http://www.w3.org/2000/svg" viewBox="0 0 78.34 77.58"><defs><style>.cls-1{fill:none;stroke:#fff;stroke-linecap:round;stroke-linejoin:round;stroke-width:3px;}</style></defs><title>1</title><path class="cls-1" d="M1155.34,261.42l-19.2-6.57a5.47,5.47,0,0,0-3.53,0l-19.2,6.57a3.59,3.59,0,0,0-2.41,3.38v52.43a4,4,0,0,0,4,4h38.79a4,4,0,0,0,4-4V264.8A3.59,3.59,0,0,0,1155.34,261.42Z" transform="translate(-1107.38 -245.13)"/><path class="cls-1" d="M1157.75,318.78,1182,306.49a4,4,0,0,0,1.76-5.35l-23.69-46.77a3.57,3.57,0,0,0-3.68-1.92L1138.21,255" transform="translate(-1107.38 -245.13)"/><rect class="cls-1" x="14.47" y="37.73" width="10.05" height="10.05" rx="5.03"/><rect class="cls-1" x="23.13" y="18.37" width="8.25" height="8.25" rx="4.12"/><rect class="cls-1" x="30.64" y="53.89" width="10.05" height="10.05" rx="5.03"/><line class="cls-1" x1="15.25" y1="62.38" x2="39.25" y2="39.29"/><line class="cls-1" x1="1.5" y1="1.5" x2="27.25" y2="22.5"/></svg>