<svg id="Слой_3" data-name="Слой 3" xmlns="http://www.w3.org/2000/svg" viewBox="0 0 111.5 64.95"><defs><style>.cls-1{fill:none;stroke:#fff;stroke-linecap:round;stroke-linejoin:round;stroke-width:3px;}</style></defs><title>2</title><path class="cls-1" d="M1003.64,305.82h22.86a2.33,2.33,0,0,0,2.33-2.33V261.58a2.33,2.33,0,0,0-2.33-2.33H975.74a2.33,2.33,0,0,0-2.33,2.33v41.91a2.33,2.33,0,0,0,2.33,2.33H989" transform="translate(-952.75 -257.75)"/><rect class="cls-1" x="36.26" y="48.82" width="14.63" height="14.63" rx="7.32"/><rect class="cls-1" x="83.8" y="48.82" width="14.63" height="14.63" rx="7.32"/><path class="cls-1" d="M1051.18,305.82h8.68a2.89,2.89,0,0,0,2.89-2.89V297a15.14,15.14,0,0,0-2.47-8.29l-11.69-17.82a4.65,4.65,0,0,0-3.89-2.1h-15.87" transform="translate(-952.75 -257.75)"/><line class="cls-1" x1="73.75" y1="48.07" x2="83.8" y2="48.07"/><line class="cls-1" x1="1.5" y1="22.22" x2="13.54" y2="22.22"/><line class="cls-1" x1="1.5" y1="7.71" x2="13.54" y2="7.71"/><line class="cls-1" x1="1.5" y1="36.72" x2="13.54" y2="36.72"/><path class="cls-1" d="M991.54,283.2l6.11,6.11a2.8,2.8,0,0,0,3.89.06l9.94-9.4" transform="translate(-952.75 -257.75)"/></svg>