<svg id="Слой_3" data-name="Слой 3" xmlns="http://www.w3.org/2000/svg" viewBox="0 0 82.97 71.14"><defs><style>.cls-1{fill:none;stroke:#fff;stroke-linecap:round;stroke-linejoin:round;stroke-width:3px;}</style></defs><title>4</title><path class="cls-1" d="M667.74,282.59v34a1.59,1.59,0,0,1-1.59,1.59H649.37a1.59,1.59,0,0,1-1.58-1.59v-20a1.56,1.56,0,0,0-1.57-1.56h-19.6a1.56,1.56,0,0,0-1.56,1.56v20a1.59,1.59,0,0,1-1.59,1.59H606.7a1.59,1.59,0,0,1-1.59-1.59v-34" transform="translate(-594.94 -248.56)"/><path class="cls-1" d="M676.41,278.43,637.89,251.6a2.57,2.57,0,0,0-2.93,0l-38.52,26.83" transform="translate(-594.94 -248.56)"/><polyline class="cls-1" points="10.17 13.99 10.17 1.5 21.49 1.5"/></svg>